<svg width="15" height="15" viewBox="0 0 15 15" fill="none" xmlns="http://www.w3.org/2000/svg">
<path fill-rule="evenodd" clip-rule="evenodd" d="M4.63534 3.83774C5.48328 3.27116 6.48019 2.96875 7.5 2.96875C7.75887 2.96875 7.96875 3.17862 7.96875 3.4375V7.65625H12.1875C12.4464 7.65625 12.6562 7.86612 12.6562 8.125C12.6562 9.14481 12.3539 10.1417 11.7872 10.9897C11.2207 11.8376 10.4154 12.4985 9.47319 12.8887C8.53106 13.279 7.49431 13.3811 6.49406 13.1822C5.49386 12.9832 4.5751 12.4921 3.85398 11.771C3.13287 11.0499 2.64178 10.1311 2.44283 9.13094C2.24387 8.13075 2.34598 7.094 2.73625 6.15179C3.12651 5.20961 3.7874 4.40431 4.63534 3.83774Z" fill="#20836D"/>
<path fill-rule="evenodd" clip-rule="evenodd" d="M8.57481 1.69979C8.66269 1.61189 8.78194 1.5625 8.90625 1.5625C9.58338 1.5625 10.2539 1.69587 10.8794 1.95499C11.5051 2.21412 12.0735 2.59393 12.5522 3.07273C13.0311 3.55153 13.4109 4.11996 13.67 4.74554C13.9291 5.37113 14.0625 6.04162 14.0625 6.71875C14.0625 6.97763 13.8526 7.1875 13.5938 7.1875H8.90625C8.64737 7.1875 8.4375 6.97763 8.4375 6.71875V2.03125C8.4375 1.90693 8.48687 1.7877 8.57481 1.69979Z" fill="#20836D"/>
</svg>
