<svg width="38" height="38" viewBox="0 0 38 38" fill="none" xmlns="http://www.w3.org/2000/svg">
<circle cx="19" cy="19" r="19" fill="#20836D"/>
<g clip-path="url(#clip0_869_143167)">
<path d="M19.381 11.001C19.9648 10.9987 20.5485 11.0046 21.1321 11.0186L21.2873 11.0242C21.4665 11.0306 21.6433 11.0386 21.8569 11.0482C22.708 11.0882 23.2888 11.2226 23.7984 11.4202C24.3263 11.6234 24.7711 11.8986 25.2159 12.3433C25.6226 12.743 25.9373 13.2265 26.1383 13.7601C26.3358 14.2697 26.4702 14.8513 26.5102 15.7024C26.5198 15.9152 26.5278 16.0928 26.5342 16.272L26.539 16.4272C26.5532 17.0105 26.5594 17.594 26.5574 18.1775L26.5582 18.7743V19.8223C26.5602 20.406 26.5541 20.9898 26.5398 21.5734L26.535 21.7286C26.5286 21.9078 26.5206 22.0846 26.511 22.2982C26.471 23.1494 26.335 23.7302 26.1383 24.2397C25.938 24.7739 25.6232 25.2578 25.2159 25.6573C24.8159 26.0639 24.3322 26.3787 23.7984 26.5797C23.2888 26.7772 22.708 26.9116 21.8569 26.9516C21.6433 26.9612 21.4665 26.9692 21.2873 26.9756L21.1321 26.9804C20.5485 26.9947 19.9648 27.0008 19.381 26.9988L18.7842 26.9996H17.7371C17.1533 27.0016 16.5696 26.9955 15.986 26.9812L15.8308 26.9764C15.6409 26.9696 15.451 26.9616 15.2612 26.9524C14.4101 26.9124 13.8293 26.7764 13.3189 26.5797C12.7851 26.3791 12.3016 26.0643 11.9022 25.6573C11.495 25.2575 11.18 24.7738 10.979 24.2397C10.7814 23.7302 10.6471 23.1494 10.6071 22.2982C10.5981 22.1084 10.5901 21.9185 10.5831 21.7286L10.5791 21.5734C10.5643 20.9898 10.5576 20.4061 10.5591 19.8223V18.1775C10.5568 17.594 10.5627 17.0105 10.5767 16.4272L10.5823 16.272C10.5887 16.0928 10.5967 15.9152 10.6063 15.7024C10.6463 14.8505 10.7806 14.2705 10.9782 13.7601C11.1793 13.2262 11.495 12.7429 11.903 12.3441C12.3021 11.9368 12.7853 11.6214 13.3189 11.4202C13.8293 11.2226 14.4093 11.0882 15.2612 11.0482L15.8308 11.0242L15.986 11.0202C16.5693 11.0054 17.1528 10.9988 17.7363 11.0002L19.381 11.001ZM18.5586 15.0009C18.0287 14.9934 17.5025 15.0913 17.0107 15.2889C16.5189 15.4865 16.0713 15.7799 15.6939 16.1521C15.3165 16.5242 15.0167 16.9676 14.8122 17.4566C14.6076 17.9455 14.5023 18.4703 14.5023 19.0003C14.5023 19.5303 14.6076 20.0551 14.8122 20.5441C15.0167 21.033 15.3165 21.4764 15.6939 21.8486C16.0713 22.2207 16.5189 22.5141 17.0107 22.7117C17.5025 22.9094 18.0287 23.0073 18.5586 22.9998C19.6195 22.9998 20.6368 22.5784 21.3869 21.8282C22.137 21.0781 22.5584 20.0607 22.5584 18.9999C22.5584 17.9391 22.137 16.9217 21.3869 16.1716C20.6368 15.4215 19.6195 15.0009 18.5586 15.0009ZM18.5586 16.6008C18.8774 16.5949 19.1942 16.6526 19.4904 16.7705C19.7867 16.8885 20.0564 17.0642 20.284 17.2876C20.5115 17.511 20.6923 17.7774 20.8157 18.0714C20.9391 18.3654 21.0027 18.6811 21.0027 18.9999C21.0028 19.3187 20.9393 19.6344 20.816 19.9285C20.6927 20.2225 20.512 20.489 20.2846 20.7124C20.0571 20.9359 19.7874 21.1117 19.4912 21.2298C19.195 21.3478 18.8782 21.4056 18.5595 21.3998C17.923 21.3998 17.3125 21.147 16.8625 20.6969C16.4124 20.2468 16.1596 19.6364 16.1596 18.9999C16.1596 18.3634 16.4124 17.753 16.8625 17.3029C17.3125 16.8528 17.923 16.6 18.5595 16.6L18.5586 16.6008ZM22.7584 13.8009C22.5004 13.8112 22.2563 13.921 22.0773 14.1073C21.8984 14.2935 21.7985 14.5418 21.7985 14.8001C21.7985 15.0583 21.8984 15.3066 22.0773 15.4928C22.2563 15.6791 22.5004 15.7889 22.7584 15.7992C23.0236 15.7992 23.278 15.6939 23.4655 15.5063C23.653 15.3188 23.7584 15.0645 23.7584 14.7992C23.7584 14.534 23.653 14.2797 23.4655 14.0922C23.278 13.9046 23.0236 13.7993 22.7584 13.7993V13.8009Z" fill="white"/>
</g>
<defs>
<clipPath id="clip0_869_143167">
<rect width="17" height="16" fill="white" transform="translate(10 11)"/>
</clipPath>
</defs>
</svg>
