<svg width="24" height="24" viewBox="0 0 24 24" fill="none" xmlns="http://www.w3.org/2000/svg">
<g clip-path="url(#clip0_869_144466)">
<path fill-rule="evenodd" clip-rule="evenodd" d="M10.5903 0.601562C10.2781 0.601562 10.025 0.85465 10.025 1.16685V3.29877C9.14411 3.5165 8.30077 3.86496 7.5231 4.33253L6.0207 2.82624C5.91473 2.72 5.77088 2.66025 5.62083 2.66015C5.47078 2.66006 5.32684 2.71962 5.22074 2.82572L2.82768 5.21878C2.72158 5.32488 2.66202 5.46881 2.66211 5.61886C2.66221 5.76891 2.72196 5.91277 2.8282 6.01873L4.33449 7.52114C3.86692 8.29881 3.51846 9.14215 3.30073 10.0231H1.16881C0.856605 10.0231 0.603516 10.2762 0.603516 10.5884V13.4148C0.603516 13.727 0.856605 13.9801 1.16881 13.9801H3.30073C3.51846 14.861 3.86692 15.7043 4.33449 16.482L2.8282 17.9844C2.72196 18.0904 2.66221 18.2342 2.66211 18.3843C2.66202 18.5343 2.72158 18.6783 2.82768 18.7844L5.22074 21.1774C5.32684 21.2835 5.47078 21.3431 5.62083 21.343C5.77088 21.3429 5.91473 21.2832 6.0207 21.1769L7.5231 19.6706C8.30077 20.1382 9.14411 20.4867 10.025 20.7044V22.8363C10.025 23.1485 10.2781 23.4016 10.5903 23.4016H13.4167C13.7289 23.4016 13.982 23.1485 13.982 22.8363V20.7044C14.8629 20.4867 15.7063 20.1382 16.4839 19.6706L17.9863 21.1769C18.0923 21.2832 18.2362 21.3429 18.3862 21.343C18.5363 21.3431 18.6802 21.2835 18.7863 21.1774L21.1793 18.7844C21.2854 18.6783 21.345 18.5343 21.3449 18.3843C21.3448 18.2342 21.2851 18.0904 21.1788 17.9844L19.6725 16.482C20.1401 15.7043 20.4886 14.861 20.7063 13.9801H22.8382C23.1504 13.9801 23.4035 13.727 23.4035 13.4148V10.5884C23.4035 10.2762 23.1504 10.0231 22.8382 10.0231H20.7063C20.4886 9.14215 20.1401 8.29881 19.6725 7.52114L21.1788 6.01873C21.2851 5.91277 21.3448 5.76891 21.3449 5.61886C21.345 5.46881 21.2854 5.32488 21.1793 5.21878L18.7863 2.82572C18.6802 2.71962 18.5363 2.66006 18.3862 2.66015C18.2362 2.66025 18.0923 2.72 17.9863 2.82624L16.4839 4.33253C15.7063 3.86496 14.8629 3.5165 13.982 3.29877V1.16685C13.982 0.85465 13.7289 0.601562 13.4167 0.601562H10.5903ZM8.04649 12.0016C8.04649 9.81615 9.81811 8.04453 12.0035 8.04453C14.1889 8.04453 15.9605 9.81615 15.9605 12.0016C15.9605 14.187 14.1889 15.9586 12.0035 15.9586C9.81811 15.9586 8.04649 14.187 8.04649 12.0016Z" fill="#20836D"/>
</g>
<defs>
<clipPath id="clip0_869_144466">
<rect width="24" height="24" fill="white" transform="translate(0.00390625)"/>
</clipPath>
</defs>
</svg>
