<svg width="30" height="30" viewBox="0 0 30 30" fill="none" xmlns="http://www.w3.org/2000/svg">
<rect width="30" height="30" rx="15" fill="#32A9E6"/>
<path d="M6.80371 14.9732C6.80371 14.9732 13.8064 12.0463 16.2351 11.0156C17.1661 10.6034 20.3234 9.28421 20.3234 9.28421C20.3234 9.28421 21.7806 8.70707 21.6592 10.1087C21.6187 10.6859 21.2948 12.7059 20.971 14.8908C20.4853 17.9826 19.9591 21.363 19.9591 21.363C19.9591 21.363 19.8781 22.3112 19.19 22.4761C18.5019 22.641 17.3685 21.8989 17.1661 21.734C17.0042 21.6104 14.1302 19.7553 13.0778 18.8483C12.7945 18.601 12.4706 18.1063 13.1183 17.5291C14.5755 16.1687 16.3161 14.4785 17.3685 13.4067C17.8542 12.912 18.34 11.7577 16.3161 13.1593C13.4421 15.1793 10.6086 17.0757 10.6086 17.0757C10.6086 17.0757 9.961 17.4879 8.74666 17.1169C7.53231 16.7459 6.11558 16.2512 6.11558 16.2512C6.11558 16.2512 5.14411 15.6328 6.80371 14.9732Z" fill="white"/>
</svg>
