<svg width="30" height="30" viewBox="0 0 30 30" fill="none" xmlns="http://www.w3.org/2000/svg">
<rect width="30" height="30" rx="15" fill="#01D363"/>
<path d="M23.4502 14.5744C23.4502 19.1214 19.7359 22.8074 15.1531 22.8074C13.6983 22.8074 12.3316 22.4356 11.1424 21.783L6.54883 23.2427L8.04648 18.8254C7.29099 17.5849 6.85587 16.1299 6.85587 14.5744C6.85587 10.0273 10.5706 6.34131 15.1531 6.34131C19.7362 6.34131 23.4502 10.0273 23.4502 14.5744ZM15.1531 7.65248C11.3064 7.65248 8.17737 10.7576 8.17737 14.5744C8.17737 16.0889 8.67108 17.4915 9.5062 18.6326L8.63465 21.2033L11.3154 20.3513C12.4168 21.0745 13.7362 21.4962 15.1533 21.4962C18.9995 21.4962 22.1291 18.3914 22.1291 14.5747C22.1291 10.758 18.9997 7.65248 15.1531 7.65248ZM19.343 16.4705C19.2917 16.3866 19.1563 16.3359 18.9531 16.235C18.7496 16.1342 17.7494 15.6457 17.5635 15.5787C17.377 15.5114 17.241 15.4776 17.1056 15.6795C16.9702 15.8816 16.5804 16.3359 16.4615 16.4705C16.3428 16.6055 16.2243 16.6224 16.0208 16.5214C15.8176 16.4206 15.1623 16.2072 14.3854 15.5199C13.7809 14.9851 13.3727 14.3248 13.254 14.1225C13.1355 13.9207 13.2416 13.8115 13.3432 13.7111C13.4348 13.6206 13.5468 13.4754 13.6484 13.3576C13.7503 13.2397 13.7841 13.1558 13.8516 13.0209C13.9197 12.8863 13.8857 12.7685 13.8346 12.6673C13.7839 12.5665 13.3768 11.5734 13.2074 11.1693C13.038 10.7655 12.8688 10.8328 12.75 10.8328C12.6315 10.8328 12.4957 10.8159 12.3601 10.8159C12.2245 10.8159 12.004 10.8664 11.8176 11.0683C11.6313 11.2703 11.106 11.7586 11.106 12.7514C11.106 13.7445 11.8345 14.7039 11.9364 14.8384C12.038 14.9729 13.343 17.0769 15.4106 17.885C17.4784 18.6927 17.4784 18.4232 17.8514 18.3894C18.2239 18.3558 19.0544 17.9013 19.2245 17.4303C19.3935 16.9586 19.3935 16.5546 19.343 16.4705Z" fill="white"/>
</svg>
