<svg width="38" height="38" viewBox="0 0 38 38" fill="none" xmlns="http://www.w3.org/2000/svg">
<circle cx="19" cy="19" r="19" fill="#20836D"/>
<g clip-path="url(#clip0_869_143171)">
<path d="M29.0984 13.4989C28.9741 13.0156 28.729 12.5746 28.3877 12.2199C28.0463 11.8652 27.6206 11.6093 27.1533 11.4778C25.4382 11 18.5586 11 18.5586 11C18.5586 11 11.679 11 9.96301 11.4778C9.49588 11.6095 9.07045 11.8655 8.72925 12.2202C8.38805 12.5749 8.14305 13.0158 8.01876 13.4989C7.55859 15.2815 7.55859 19 7.55859 19C7.55859 19 7.55859 22.7185 8.01876 24.5011C8.14305 24.9844 8.38815 25.4254 8.72954 25.7801C9.07092 26.1348 9.49659 26.3907 9.96393 26.5222C11.679 27 18.5586 27 18.5586 27C18.5586 27 25.4382 27 27.1542 26.5222C27.6216 26.3908 28.0473 26.1349 28.3887 25.7802C28.7301 25.4255 28.9751 24.9844 29.0993 24.5011C29.5586 22.7185 29.5586 19 29.5586 19C29.5586 19 29.5586 15.2815 29.0984 13.4989ZM16.3082 22.376V15.624L22.0584 19L16.3082 22.376Z" fill="white"/>
</g>
<defs>
<clipPath id="clip0_869_143171">
<rect width="23" height="16" fill="white" transform="translate(7 11)"/>
</clipPath>
</defs>
</svg>
